<svg width="225" height="420" viewBox="0 0 225 420" fill="none" xmlns="http://www.w3.org/2000/svg">
<g opacity="0.1">
<path d="M-103.751 497.825C6.01572 485.526 88.9993 444.673 142.902 376.404C201.111 302.682 223.783 197.943 208.466 73.5086C208.04 70.0529 203.675 67.5542 199.817 67.7786C195.936 67.9322 195.836 70.3719 195.783 71.5474C195.783 71.5592 195.777 71.5651 195.777 71.5769C195.812 72.6461 195.848 73.7094 195.883 74.7786C196.356 89.3102 196.799 103.044 196.799 108.178C196.799 111.438 194.153 114.085 190.892 114.085C187.631 114.085 184.985 111.438 184.985 108.178C184.985 103.233 184.542 89.5938 184.075 75.1626C183.573 59.5145 183.047 43.3349 183.047 36.8488C183.047 30.4218 179.042 28.1358 175.616 28.1358C172.089 28.1358 168.315 30.4986 168.315 37.1264V98.2655C168.315 101.526 165.668 104.173 162.407 104.173C159.147 104.173 156.5 101.526 156.5 98.2655V37.1264V26.7239C156.5 26.2632 156.66 25.8556 156.76 25.4303C156.66 24.9991 156.5 24.5915 156.5 24.1307C156.5 18.6134 155.006 15.6303 153.748 14.0945C149.731 9.17971 141.39 12.47 141.384 23.475V92.1693C141.384 95.43 138.738 98.0764 135.477 98.0764C132.216 98.0764 129.57 95.43 129.57 92.1693V41.4918C129.57 38.1248 128.76 35.4783 127.236 33.8362C125.807 32.3003 124.064 31.9754 122.853 31.9754C119.002 31.9754 115.109 35.1416 115.109 41.2024C115.109 47.972 115.162 55.285 115.221 63.236C115.345 80.0242 115.487 100.664 115.168 125.161C133.569 125.102 152.667 136.886 172.137 160.48C174.216 162.996 173.856 166.718 171.339 168.797C170.24 169.707 168.905 170.15 167.582 170.15C165.881 170.15 164.191 169.417 163.022 167.999C141.242 141.606 121.004 132.025 102.875 139.486C102.633 139.586 102.385 139.562 102.143 139.627C101.652 139.757 101.162 139.911 100.66 139.917C100.241 139.917 99.8449 139.787 99.4373 139.698C99.1006 139.627 98.7639 139.621 98.439 139.491C97.8955 139.273 97.4288 138.924 96.9681 138.558C96.8322 138.44 96.655 138.399 96.5251 138.275C96.5073 138.263 96.4955 138.245 96.4778 138.233C96.4719 138.227 96.466 138.221 96.4601 138.216C77.5572 119.986 66.5167 116.27 60.645 116.572C59.3277 116.613 58.1227 116.843 57.0003 117.275L111.092 175.029C111.139 175.076 111.151 175.147 111.198 175.194C111.482 175.519 111.665 175.909 111.872 176.293C112.037 176.594 112.244 176.866 112.35 177.185C112.463 177.504 112.463 177.847 112.51 178.183C112.581 178.615 112.669 179.028 112.64 179.459C112.634 179.53 112.663 179.589 112.657 179.66C99.331 312.311 29.0063 385.064 -102.327 402.076C-102.587 402.106 -102.841 402.123 -103.095 402.123C-106.019 402.123 -108.565 399.955 -108.949 396.978C-109.363 393.741 -107.083 390.776 -103.851 390.356C20.3464 374.271 87.2272 305.801 100.589 181.113L43.8392 120.518C41.7362 118.267 41.7067 114.776 43.7801 112.502C48.2696 107.581 53.8104 104.976 60.2551 104.769C71.7505 104.403 85.4196 111.84 102.001 127.27C102.438 127.128 102.881 126.986 103.324 126.856C103.673 101.668 103.525 80.479 103.401 63.3306C103.342 55.3441 103.289 48.0074 103.289 41.2083C103.289 27.545 113.366 20.167 122.847 20.167C125.269 20.167 127.585 20.6573 129.729 21.5375C130.58 7.57887 140.143 0 149.258 0C154.551 0 159.395 2.34514 162.886 6.61601C165.373 9.65228 166.98 13.5687 167.759 18.07C170.187 16.9594 172.834 16.3274 175.616 16.3274C184.949 16.3274 194.861 23.5223 194.861 36.8547C194.861 40.6471 195.05 48.0074 195.31 56.6437C196.586 56.2951 197.915 56.0411 199.345 55.9821C208.359 55.6631 218.921 61.6647 220.197 72.0732C235.91 199.703 212.388 307.473 152.176 383.729C96.2474 454.567 10.5819 496.904 -102.434 509.574C-102.658 509.598 -102.877 509.61 -103.095 509.61C-106.067 509.61 -108.624 507.377 -108.961 504.358C-109.333 501.11 -106.994 498.185 -103.751 497.825Z" fill="#F3F3F3"/>
</g>
</svg>
