<svg width="33" height="18" viewBox="0 0 33 18" fill="none" xmlns="http://www.w3.org/2000/svg">
<path d="M17.5312 12.375H14.4375C13.8682 12.375 13.4062 11.914 13.4062 11.3438C13.4062 10.7735 13.8682 10.3125 14.4375 10.3125H17.5312C19.8062 10.3125 21.6562 8.46244 21.6562 6.1875C21.6562 3.91256 19.8062 2.0625 17.5312 2.0625H6.1875C3.91256 2.0625 2.0625 3.91256 2.0625 6.1875C2.0625 8.46244 3.91256 10.3125 6.1875 10.3125C6.75675 10.3125 7.21875 10.7735 7.21875 11.3438C7.21875 11.914 6.75675 12.375 6.1875 12.375C2.77509 12.375 0 9.59991 0 6.1875C0 2.77509 2.77509 0 6.1875 0H17.5312C20.9437 0 23.7188 2.77509 23.7188 6.1875C23.7188 9.59991 20.9437 12.375 17.5312 12.375Z" fill="#B3B3B3"/>
<path d="M26.8125 17.5312H15.4688C12.0563 17.5312 9.28125 14.7562 9.28125 11.3438C9.28125 7.93134 12.0563 5.15625 15.4688 5.15625H18.5625C19.1328 5.15625 19.5938 5.61825 19.5938 6.1875C19.5938 6.75675 19.1328 7.21875 18.5625 7.21875H15.4688C13.1938 7.21875 11.3438 9.06881 11.3438 11.3438C11.3438 13.6187 13.1938 15.4688 15.4688 15.4688H26.8125C29.0874 15.4688 30.9375 13.6187 30.9375 11.3438C30.9375 9.06881 29.0874 7.21875 26.8125 7.21875C26.2422 7.21875 25.7812 6.75675 25.7812 6.1875C25.7812 5.61825 26.2422 5.15625 26.8125 5.15625C30.2249 5.15625 33 7.93134 33 11.3438C33 14.7562 30.2249 17.5312 26.8125 17.5312Z" fill="#B3B3B3"/>
</svg>
